<svg xmlns="http://www.w3.org/2000/svg" version="1.1" xmlns:xlink="http://www.w3.org/1999/xlink" xmlns:svgjs="http://svgjs.dev/svgjs" width="100%" height="100%" viewBox="0 0 1000 600"><rect width="1000" height="600" x="0" y="0" fill="#df678c"/><g><circle r="166.66666666666666" cx="267.89809672037757" cy="290.12031106494305" fill="#3d155f" transform="matrix(1.234794681218379,0,0,1.234794681218379,0,-58.23900311933589)"/><path d="M267.9863747879049 365.12031046726423L267.9863747879049 365.12031046726423Q253.10492321457488 365.12031046726423 244.20127506985372 359.2938438343164Q235.29762692513262 353.4926000006454 231.48898423433118 342.69724191016195Q227.6803415435298 331.8766610204016 227.6803415435298 317.3483286369473L227.6803415435298 317.3483286369473L227.6803415435298 261.60594223515204Q227.6803415435298 247.0776098516977 231.56465263216168 236.63537095108993Q235.4741865200704 226.1931320504821 244.27694346768422 220.6441162095794Q253.10492321457488 215.12032316795356 267.9863747879049 215.12032316795356L267.9863747879049 215.12032316795356Q282.86782636123485 215.12032316795356 291.5949149110181 220.7450074066867Q300.3220034608015 226.36969164541992 304.2063145494334 236.71103934892042Q308.11584843734204 247.0776098516977 308.11584843734204 261.60594223515204L308.11584843734204 261.60594223515204L308.11584843734204 317.5248882318852Q308.11584843734204 331.8766610204016 304.2063145494334 342.5963507130546Q300.3220034608015 353.3160404057075 291.5949149110181 359.21817543648586Q282.86782636123485 365.12031046726423 267.9863747879049 365.12031046726423ZM267.9863747879049 348.95249613081586L267.9863747879049 348.95249613081586Q276.15856175359795 348.95249613081586 280.3455464335518 345.5978638269974Q284.5073083142288 342.24323152317896 285.97023067228497 336.13931409818605Q287.40793023106426 330.0606194724699 287.40793023106426 321.88843250677684L287.40793023106426 321.88843250677684L287.40793023106426 257.4189575551982Q287.40793023106426 249.24677058950513 285.97023067228497 243.34463555872682Q284.5073083142288 237.4425005279485 280.3455464335518 234.26442781906786Q276.15856175359795 231.0863551101872 267.9863747879049 231.0863551101872L267.9863747879049 231.0863551101872Q259.8141878222118 231.0863551101872 255.5515347444274 234.26442781906786Q251.2888816666431 237.4425005279485 249.82595930858693 243.34463555872682Q248.36303695053076 249.24677058950513 248.36303695053076 257.4189575551982L248.36303695053076 257.4189575551982L248.36303695053076 321.88843250677684Q248.36303695053076 330.0606194724699 249.82595930858693 336.13931409818605Q251.2888816666431 342.24323152317896 255.5515347444274 345.5978638269974Q259.8141878222118 348.95249613081586 267.9863747879049 348.95249613081586Z " fill="#df678c" transform="matrix(1.234794681218379,0,0,1.234794681218379,0,-58.23900311933589)"/><path d="M546.1952204215683 365.1203104646211L546.1952204215683 365.1203104646211Q538.1854103148829 365.1203104646211 531.7523344811672 363.3753912025348Q525.3192586474513 361.6514950640881 521.5981657632432 358.01449467443825Q517.8980960026746 354.3774942847885 517.8980960026746 348.4699965420626L517.8980960026746 348.4699965420626Q517.8980960026746 343.92900183591024 520.0214314902736 340.52325580629605Q522.1447669778726 337.11750977668186 525.4664205129285 334.6998505581285Q528.7880740479843 332.28219133957515 532.4250744376342 330.91568830300156L532.4250744376342 330.91568830300156L539.993398947888 331.9668444849813Q538.0382484494057 333.7958562416259 536.209236692761 335.68793736918946Q534.401248059756 337.58001849675287 533.1819068886595 339.6192614897935Q531.9835888412026 341.6585044828341 531.9835888412026 344.07616370138743L531.9835888412026 344.07616370138743Q531.9835888412026 348.0285109456311 535.3893348708169 349.98366144411335Q538.7950809004311 351.95983506623526 547.5617234581418 351.95983506623526L547.5617234581418 351.95983506623526Q556.202227274015 351.95983506623526 560.3648057546546 349.92059207319454Q564.5273842352942 347.8603259565144 564.5273842352942 343.4875162394788L564.5273842352942 343.4875162394788Q564.5273842352942 340.7545101663316 563.455204929675 339.0095909042453Q562.4040487476952 337.26467164215893 559.8182045400252 336.2135154601793Q557.2533834559947 335.1623592781995 552.4180650188881 334.6998505581285L552.4180650188881 334.6998505581285L533.3290687541366 332.28219133957515Q527.4425941350504 331.52535888854976 524.5624261964259 328.4980290844482Q521.6822582578015 325.47069928034665 521.6822582578015 321.8336988906969L521.6822582578015 321.8336988906969Q521.6822582578015 316.3887098680421 524.7936805564615 312.60454761291516Q527.8840797314818 308.82038535778827 533.1819068886595 304.13222878615875L533.1819068886595 304.13222878615875L538.6268959113144 308.35787663771714Q537.7229015948118 309.57721780881366 536.3563985582382 311.7636226673314Q535.0109186453042 313.97105064948875 535.0109186453042 316.07336301344816L535.0109186453042 316.07336301344816Q535.0109186453042 317.7552129046157 536.734814783751 318.80636908659534Q538.4797340458372 319.8575252685751 542.2638963009641 320.17287212316904L542.2638963009641 320.17287212316904L556.9590597250404 321.53937515974263Q567.2393671848018 322.4433694762452 572.2428706110253 327.7411966334228Q577.2253509136091 333.03902379060054 577.2253509136091 342.8778456539306L577.2253509136091 342.8778456539306Q577.2253509136091 350.13082330959054 573.8196048839949 355.1343267358139Q570.4138588543806 360.13783016203735 563.6023667951521 362.6185587515094Q556.7908747359237 365.1203104646211 546.1952204215683 365.1203104646211ZM546.8048910071165 310.7755358562705L546.8048910071165 310.7755358562705Q537.870063460289 310.7755358562705 532.2779125721569 306.84421173566636Q526.6857616840249 302.91288761506223 524.0368481054361 295.95423369035666Q521.3879345268473 288.995579765651 521.3879345268473 280.0607522188235L521.3879345268473 280.0607522188235Q521.3879345268473 269.9065835008996 524.2470793418321 263.0320220707523Q527.1272472804563 256.13643751696554 532.8034906631468 252.58352962187408Q538.4797340458372 249.0306217267827 546.8048910071165 249.0306217267827L546.8048910071165 249.0306217267827Q555.4453948229897 249.0306217267827 560.8903838456445 253.34036207289947Q566.3353728682993 257.6501024190162 568.9001939523298 264.77694133283865Q571.4860381599998 271.8827571230214 571.4860381599998 280.50223781525506L571.4860381599998 280.50223781525506Q571.4860381599998 289.43706536208254 569.1314483123654 296.3326499158693Q566.7978815883704 303.2072113460166 561.4159619366343 306.99137360114355Q556.0340422848982 310.7755358562705 546.8048910071165 310.7755358562705ZM546.8048910071165 299.1287253599354L546.8048910071165 299.1287253599354Q550.1475676658118 299.1287253599354 552.1027181642942 297.8463148179201Q554.078891786416 296.56390427590486 555.0669785974769 294.12522193371194Q556.0340422848982 291.7075627151587 556.4124585104109 288.1546548200672Q556.7908747359237 284.6017469249758 556.7908747359237 280.0607522188235L556.7908747359237 280.0607522188235Q556.7908747359237 275.51975751267116 556.4965510049693 271.8827571230214Q556.202227274015 268.24575673337165 555.1300479683956 265.7440050202599Q554.078891786416 263.26327643078787 552.1027181642942 261.8967733942143Q550.1475676658118 260.5302703576407 546.9520528725935 260.5302703576407L546.9520528725935 260.5302703576407Q543.6303993375378 260.5302703576407 541.5911563444971 261.8126808996559Q539.5519133514565 263.0950914416711 538.4166646749185 265.59684315478285Q537.2814159983803 268.0985948678946 536.9029997728677 271.73559525754433Q536.524583547355 275.3725956471941 536.524583547355 280.0607522188235L536.524583547355 280.0607522188235Q536.524583547355 284.1392382049048 536.9029997728677 287.6290767290774Q537.2814159983803 291.0978921296104 538.33257218036 293.6837363372805Q539.3837283623398 296.2485574213109 541.44399447902 297.699152952443Q543.4832374720605 299.1287253599354 546.8048910071165 299.1287253599354ZM568.4587083558982 264.92410319831583L568.4587083558982 264.92410319831583L564.6745461007714 258.8694435901127Q565.8728641482282 256.74610810251374 570.1195351234263 253.57161643293503Q574.3662060986243 250.3971247633563 579.201524535731 248.2737892757573L579.201524535731 248.2737892757573L583.4481955109289 258.8694435901127Q581.32486002333 259.3109291865442 577.7719521282385 260.5302703576407Q574.1980211095075 261.7496115287371 571.3388762945227 263.0320220707523Q568.4587083558982 264.31443261276763 568.4587083558982 264.92410319831583ZM607.057163358193 337.72718036223006L590.8483350320661 337.72718036223006L590.8483350320661 250.2289397742396L607.057163358193 250.2289397742396L607.057163358193 337.72718036223006ZM607.057163358193 237.21562624133082L590.8483350320661 237.21562624133082L590.8483350320661 220.27098858781804L607.057163358193 220.27098858781804L607.057163358193 237.21562624133082ZM644.7516240439851 338.94652153332646L644.7516240439851 338.94652153332646Q633.6934610095587 338.94652153332646 628.2484719869038 330.8315958084432Q622.8034829642489 322.73769320719947 622.8034829642489 303.37539633513336L622.8034829642489 303.37539633513336L622.8034829642489 286.409735557981Q622.8034829642489 276.42375182917374 624.464309731777 267.867340507859Q626.1251364993049 259.3109291865442 630.7502237000155 254.18128701848323Q635.3542877770866 249.0306217267827 644.2891153239142 249.0306217267827L644.2891153239142 249.0306217267827Q648.6829481645892 249.0306217267827 652.319948554239 250.98577222526498Q655.9359258202493 252.96194584738677 658.8160937588735 255.84211378601114L658.8160937588735 255.84211378601114L658.8160937588735 215.12032329611748L675.0249220850006 215.12032329611748L675.0249220850006 337.72718036223006L658.8160937588735 337.72718036223006L658.8160937588735 332.1350294740981Q655.9359258202493 335.1623592781995 652.5301797906351 337.05444040576305Q649.1244337610207 338.94652153332646 644.7516240439851 338.94652153332646ZM648.8301100300665 326.22753173137204L648.8301100300665 326.22753173137204Q651.1006073831426 326.22753173137204 653.665428467173 325.3866067857883Q656.2512726748431 324.5667049638442 658.8160937588735 322.88485507267666L658.8160937588735 322.88485507267666L658.8160937588735 265.53377378386404Q656.6927582712746 264.02010888181326 654.1279371872441 262.88486020527523Q651.5631161032137 261.7496115287371 648.5357862991121 261.7496115287371L648.5357862991121 261.7496115287371Q642.9226122873405 261.7496115287371 640.9674617888583 267.1105080568336Q638.9912881667364 272.4924277085697 638.9912881667364 280.0607522188235L638.9912881667364 280.0607522188235L638.9912881667364 304.7208762480674Q638.9912881667364 310.7755358562705 639.6640281232034 315.6949467879354Q640.3577912033101 320.6143577196005 642.481126690909 323.43145628730605Q644.5834390548686 326.22753173137204 648.8301100300665 326.22753173137204ZM708.6198736610719 337.72718036223006L692.4320684585845 337.72718036223006L692.4320684585845 250.2289397742396L708.6198736610719 250.2289397742396L708.6198736610719 337.72718036223006ZM708.6198736610719 237.21562624133082L692.4320684585845 237.21562624133082L692.4320684585845 220.27098858781804L708.6198736610719 220.27098858781804L708.6198736610719 237.21562624133082Z " fill="#3d155f" transform="matrix(1.234794681218379,0,0,1.234794681218379,0,-58.23900311933589)"/></g></svg>